<?xml version="1.0"?>
<svg width="32" height="32" xmlns="http://www.w3.org/2000/svg">
 <title/>
 <desc/>

 <g>
  <title>background</title>
  <rect fill="none" id="canvas_background" height="402" width="582" y="-1" x="-1"/>
 </g>
 <g>
  <title>Layer 1</title>
  <rect stroke="#0000bf" rx="1" id="svg_11" height="30.874985" width="30.624985" y="0.562508" x="0.687508" stroke-width="null" fill="none"/>
  <path id="Fill-1" fill="#2FBBF4" d="m28.639799,21.486799c0,0.862001 -0.5245,1.8575 -0.949499,2.8605c-0.424999,1.004 -1.093,1.864 -2.004,2.83c-0.911001,0.967001 -1.887501,1.689501 -3.303501,2.292501c-1.415998,0.603998 -2.941,1.029999 -4.824999,1.029999c-1.427999,0 -2.727,-0.135 -3.897,-0.406c-1.17,-0.271 -2.232,-0.692999 -3.186,-1.264999c-0.954,-0.573 -1.831,-1.327 -2.632,-2.263c-0.714,-0.848999 -1.323,-1.801001 -1.828,-2.853001c-0.505,-1.052999 -0.884,-2.176998 -1.136,-3.370998c-0.253,-1.194 -0.379,-2.463001 -0.379,-3.805c0,-2.179 0.317,-4.131001 0.951,-5.855c0.634,-1.724 1.543,-3.198 2.725,-4.423c1.182,-1.225 2.566999,-2.158 4.155,-2.798c1.589,-0.641 3.282,-0.961 5.079,-0.961c2.192001,0 4.144001,0.437 5.855,1.312c1.712002,0.874 3.023001,1.954 3.934,3.241c0.912001,1.287 1.179501,2.4405 1.179501,3.5855c0,0.628 -0.222,1.1195 -0.664999,1.5995c-0.443001,0.48 -0.854,0.6575 -1.482,0.6575c-0.702,0 -1.165501,0.0215 -1.5165,-0.3105c-0.351,-0.333 -0.742001,-0.905 -1.173,-1.717999c-0.713999,-1.342 -1.553999,-2.346001 -2.521,-3.011c-0.966,-0.665 -2.157999,-0.997 -3.573999,-0.997c-2.253,0 -4.2355,0.606 -5.5715,2.317c-1.335,1.712 -1.8155,4.394 -1.8155,7.546c0,2.105 0.295,3.857 0.886,5.254c0.591001,1.398001 1.428,2.442001 2.512,3.131001c1.083,0.690001 2.352,1.034 3.805,1.034c1.576,0 2.909,-0.391001 3.997999,-1.172001c1.09,-0.782 1.912001,-1.931 2.466,-3.445c0.234001,-0.714001 0.523001,-1.296 0.868002,-1.744999c0.344999,-0.450001 0.898998,-0.675001 1.661999,-0.675001c0.653,0 1.213001,0.228001 1.681,0.684c0.468,0.455 0.702,1.021999 0.702,1.698999"/>
  <path fill="#0487d3" stroke-linejoin="round" stroke="#0000bf" id="Stroke-3" d="m28.07,20.987c0,0.862001 -0.212002,1.795 -0.637001,2.798c-0.424999,1.004 -1.092999,1.989 -2.003998,2.955c-0.911003,0.967001 -2.075001,1.752001 -3.491001,2.355001c-1.416,0.603998 -3.066002,0.904999 -4.950001,0.904999c-1.427999,0 -2.726995,-0.135 -3.896995,-0.406c-1.17,-0.271 -2.232,-0.692999 -3.186001,-1.264999c-0.954,-0.573 -1.830999,-1.327 -2.632,-2.263c-0.714001,-0.848999 -1.323,-1.801001 -1.828001,-2.853001c-0.505001,-1.052999 -0.884,-2.176998 -1.136,-3.370998c-0.253,-1.194 -0.379,-2.463001 -0.379,-3.805c0,-2.179001 0.317,-4.131001 0.951,-5.855001c0.634,-1.724 1.543,-3.197999 2.725002,-4.422999c1.182001,-1.224999 2.567,-2.158 4.154999,-2.798c1.589,-0.641 3.282001,-0.961 5.078997,-0.961c2.192001,0 4.144001,0.437001 5.855,1.312c1.712002,0.874 3.022999,1.954 3.933998,3.241c0.912003,1.286999 1.367001,2.502999 1.367001,3.647999c0,0.628 -0.222,1.182 -0.664997,1.662c-0.443001,0.48 -0.979,0.72 -1.607002,0.72c-0.702,0 -1.228001,-0.166 -1.578999,-0.498c-0.351002,-0.333 -0.742001,-0.905 -1.173,-1.717999c-0.714001,-1.342 -1.554001,-2.346001 -2.521,-3.011c-0.966,-0.665 -2.157999,-0.997 -3.574001,-0.997c-2.252995,0 -4.047996,0.856 -5.383994,2.566999c-1.335001,1.712 -2.003,4.144 -2.003,7.296c0,2.105 0.294999,3.857 0.886,5.254c0.591001,1.398001 1.427999,2.442001 2.511999,3.131001c1.083,0.690001 2.351997,1.034 3.804997,1.034c1.576,0 2.909,-0.391001 3.997999,-1.172001c1.089998,-0.782 1.911999,-1.931 2.465998,-3.445c0.234001,-0.714001 0.523003,-1.296 0.868004,-1.744999c0.344999,-0.450001 0.898998,-0.675001 1.661997,-0.675001c0.653002,0 1.213003,0.228001 1.681002,0.684c0.467999,0.455 0.702,1.021999 0.702,1.698999l0,0z"/>
  <path opacity="0.203766" id="Fill-7" fill="#332E09" d="m28.1026,21.088301c-0.075001,0.625999 -0.262001,1.296999 -0.559999,2.001999c-0.400002,0.944 -1.042,1.888 -1.908001,2.807001c-0.858,0.91 -1.976,1.663 -3.322001,2.237c-1.348,0.574999 -2.946999,0.865999 -4.753998,0.865999c-1.383001,0 -2.656001,-0.132999 -3.785002,-0.393999c-1.113,-0.257 -2.136,-0.663 -3.042,-1.207001c-0.903,-0.542 -1.747999,-1.268 -2.509,-2.157999c-0.682,-0.812 -1.274,-1.736 -1.757,-2.745001c-0.485,-1.013 -0.855,-2.110001 -1.098,-3.257999c-0.216,-1.021999 -0.321,-2.124001 -0.346,-3.265c-0.005,0.189 -0.021,0.370999 -0.021,0.564c0,1.302 0.123,2.546999 0.367,3.701c0.243,1.147999 0.613,2.244999 1.098,3.257999c0.483,1.009001 1.075,1.933001 1.757,2.745001c0.761001,0.889999 1.606,1.615999 2.509,2.157999c0.906,0.544001 1.929,0.950001 3.042,1.207001c1.129001,0.261 2.402,0.393999 3.785002,0.393999c1.806999,0 3.405998,-0.291 4.753998,-0.865999c1.346001,-0.573999 2.464001,-1.327 3.322001,-2.237c0.866001,-0.919001 1.507999,-1.863001 1.908001,-2.807001c0.396,-0.937 0.597,-1.813 0.597,-2.604c0,-0.139999 -0.013,-0.271999 -0.037001,-0.397999"/>
  <ellipse stroke="#ffffff" transform="rotate(-57 7.89839 9.23186)" ry="0.082483" rx="0.905642" id="svg_9" cy="9.231864" cx="7.89839" fill-opacity="null" stroke-dasharray="null" stroke-width="NaN" fill="#ffffff"/>
  <ellipse stroke="#ffffff" transform="rotate(-33.4183 11.7563 5.73493)" ry="0.099429" rx="2.192908" id="svg_10" cy="5.734932" cx="11.756311" stroke-width="null" fill="#0487d3"/>
 </g>
</svg>