<?xml version="1.0" standalone="no"?>
<!DOCTYPE svg PUBLIC "-//W3C//DTD SVG 20010904//EN"
 "http://www.w3.org/TR/2001/REC-SVG-20010904/DTD/svg10.dtd">
<svg version="1.0" xmlns="http://www.w3.org/2000/svg"
 width="700.000000pt" height="700.000000pt" viewBox="0 0 700.000000 700.000000"
 preserveAspectRatio="xMidYMid meet">
<metadata>
Created by potrace 1.11, written by Peter Selinger 2001-2013
</metadata>
<g transform="translate(0.000000,700.000000) scale(0.100000,-0.100000)"
fill="#000000" stroke="none">
<path d="M270 6969 c-72 -23 -129 -65 -168 -123 -67 -101 -62 180 -60 -3366
l3 -3215 33 -67 c37 -76 82 -120 162 -157 l55 -26 3190 0 c3291 -1 3226 -2
3297 36 59 31 109 84 140 147 l33 67 0 3235 0 3235 -26 55 c-14 31 -40 72 -57
91 -33 38 -109 83 -157 95 -17 4 -1462 8 -3212 8 -2970 2 -3185 1 -3233 -15z
m6414 -218 c16 -11 35 -30 42 -43 11 -19 13 -636 14 -3206 0 -3521 6 -3228
-63 -3257 -49 -20 -6320 -19 -6359 1 -63 32 -58 -234 -58 3254 0 2820 2 3184
15 3210 33 64 -237 59 3225 60 3103 0 3155 0 3184 -19z"/>
<path d="M3439 6666 c-2 -2 -38 -7 -79 -10 -66 -6 -138 -16 -235 -32 -329 -55
-734 -208 -1017 -385 -253 -159 -521 -395 -678 -599 -19 -24 -41 -51 -48 -58
-28 -31 -184 -273 -229 -357 -131 -245 -234 -514 -298 -780 -18 -76 -19 -81
-40 -200 -22 -121 -24 -136 -30 -195 -4 -30 -8 -62 -10 -70 -26 -105 -26 -752
0 -960 2 -19 7 -57 10 -85 3 -27 8 -61 10 -75 3 -14 7 -40 10 -57 13 -81 17
-104 41 -208 14 -60 27 -117 29 -126 7 -33 67 -225 86 -279 191 -526 497 -977
869 -1280 30 -25 57 -47 60 -50 21 -25 211 -147 321 -207 273 -149 666 -264
1024 -299 39 -3 79 -9 90 -11 11 -3 180 -7 375 -8 402 -4 476 3 770 70 101 24
302 96 460 166 256 112 470 260 668 462 275 278 422 508 562 872 96 249 116
347 98 479 -4 33 -10 77 -12 96 -28 218 -152 396 -340 489 -110 55 -185 70
-321 66 -207 -7 -332 -69 -438 -218 -76 -107 -104 -165 -202 -422 -174 -456
-486 -745 -915 -851 -129 -32 -150 -34 -340 -38 -263 -7 -454 29 -662 123 -79
35 -218 122 -268 167 -121 109 -192 191 -262 304 -49 78 -146 275 -152 307 -2
11 -11 36 -20 57 -49 116 -96 350 -113 556 -15 184 -8 687 12 859 3 22 7 58 9
79 4 34 23 158 31 207 13 83 63 275 91 357 50 144 97 239 179 363 226 342 516
523 940 590 106 17 378 25 435 12 14 -3 43 -8 65 -12 187 -32 382 -121 520
-238 174 -146 281 -286 448 -583 109 -193 165 -273 252 -360 114 -114 238
-156 440 -150 115 4 123 5 193 30 146 53 266 157 335 293 9 17 28 71 42 120
50 172 28 395 -61 626 -31 78 -82 185 -117 242 -157 258 -311 435 -531 611
-168 134 -413 282 -606 365 -52 22 -108 47 -125 54 -71 31 -341 108 -455 130
-30 6 -149 24 -205 31 -22 3 -56 8 -75 11 -41 6 -585 14 -591 9z"/>
</g>
</svg>
